<mxfile host="app.diagrams.net" agent="Mozilla/5.0 (Windows NT 10.0; Win64; x64) AppleWebKit/537.36 (KHTML, like Gecko) Chrome/135.0.0.0 Safari/537.36" version="26.2.5">
  <diagram id="C5RBs43oDa-KdzZeNtuy" name="Page-1">
    <mxGraphModel dx="2255" dy="743" grid="1" gridSize="10" guides="1" tooltips="1" connect="1" arrows="1" fold="1" page="1" pageScale="1" pageWidth="827" pageHeight="1169" math="0" shadow="0">
      <root>
        <mxCell id="WIyWlLk6GJQsqaUBKTNV-0" />
        <mxCell id="WIyWlLk6GJQsqaUBKTNV-1" parent="WIyWlLk6GJQsqaUBKTNV-0" />
        <mxCell id="jSsbBtt8vJebGRckKTgW-8" value="" style="edgeStyle=orthogonalEdgeStyle;rounded=0;orthogonalLoop=1;jettySize=auto;html=1;startArrow=ERone;startFill=0;endArrow=ERzeroToMany;endFill=0;" parent="WIyWlLk6GJQsqaUBKTNV-1" source="jSsbBtt8vJebGRckKTgW-5" target="jSsbBtt8vJebGRckKTgW-6" edge="1">
          <mxGeometry relative="1" as="geometry" />
        </mxCell>
        <mxCell id="jSsbBtt8vJebGRckKTgW-9" value="Has" style="edgeLabel;html=1;align=center;verticalAlign=middle;resizable=0;points=[];" parent="jSsbBtt8vJebGRckKTgW-8" vertex="1" connectable="0">
          <mxGeometry x="-0.2889" y="1" relative="1" as="geometry">
            <mxPoint x="8" y="-14" as="offset" />
          </mxGeometry>
        </mxCell>
        <mxCell id="jSsbBtt8vJebGRckKTgW-10" value="1..1" style="edgeLabel;html=1;align=center;verticalAlign=middle;resizable=0;points=[];" parent="jSsbBtt8vJebGRckKTgW-8" vertex="1" connectable="0">
          <mxGeometry x="-0.7556" y="1" relative="1" as="geometry">
            <mxPoint y="-14" as="offset" />
          </mxGeometry>
        </mxCell>
        <mxCell id="jSsbBtt8vJebGRckKTgW-11" value="0..*" style="edgeLabel;html=1;align=center;verticalAlign=middle;resizable=0;points=[];" parent="jSsbBtt8vJebGRckKTgW-8" vertex="1" connectable="0">
          <mxGeometry x="0.1333" y="-2" relative="1" as="geometry">
            <mxPoint x="29" y="-17" as="offset" />
          </mxGeometry>
        </mxCell>
        <mxCell id="jSsbBtt8vJebGRckKTgW-5" value="&lt;div style=&quot;box-sizing: border-box; width: 100%; background: rgb(228, 228, 228); padding: 2px;&quot;&gt;customer&lt;/div&gt;&lt;table style=&quot;width:100%;font-size:1em;&quot; cellpadding=&quot;2&quot; cellspacing=&quot;0&quot;&gt;&lt;tbody&gt;&lt;tr&gt;&lt;td&gt;PK/FK&lt;/td&gt;&lt;td&gt;customer_id int (11)&lt;/td&gt;&lt;/tr&gt;&lt;tr&gt;&lt;td&gt;&lt;br&gt;&lt;/td&gt;&lt;td&gt;customer_first_name varchar (30)&lt;br&gt;customer_last_name varchar (30)&lt;br&gt;customer_username varchar (60)&lt;br&gt;customer_email varchar (100) UNIQUE&lt;br&gt;customer_postcode varchar (12)&lt;br&gt;customer_address_line1 varchar (80)&lt;br&gt;customer_address_line2 varchar (80)&lt;br&gt;customer_phone_number varchar (12)&lt;/td&gt;&lt;/tr&gt;&lt;tr&gt;&lt;td&gt;&lt;/td&gt;&lt;td&gt;&lt;br&gt;&lt;br&gt;&lt;/td&gt;&lt;/tr&gt;&lt;/tbody&gt;&lt;/table&gt;" style="verticalAlign=top;align=left;overflow=fill;html=1;whiteSpace=wrap;" parent="WIyWlLk6GJQsqaUBKTNV-1" vertex="1">
          <mxGeometry y="21.69" width="270" height="161.12" as="geometry" />
        </mxCell>
        <mxCell id="jSsbBtt8vJebGRckKTgW-6" value="&lt;div style=&quot;box-sizing: border-box; width: 100%; background: rgb(228, 228, 228); padding: 2px;&quot;&gt;order_table&lt;/div&gt;&lt;table style=&quot;width:100%;font-size:1em;&quot; cellpadding=&quot;2&quot; cellspacing=&quot;0&quot;&gt;&lt;tbody&gt;&lt;tr&gt;&lt;td&gt;PK&lt;/td&gt;&lt;td&gt;order_id int (11)&lt;/td&gt;&lt;/tr&gt;&lt;tr&gt;&lt;td&gt;FK1&lt;/td&gt;&lt;td&gt;order_customer_id int (11)&lt;/td&gt;&lt;/tr&gt;&lt;tr&gt;&lt;td&gt;FK2&lt;/td&gt;&lt;td&gt;date_of_order Date&lt;br&gt;&lt;/td&gt;&lt;/tr&gt;&lt;tr&gt;&lt;td&gt;FK3&lt;/td&gt;&lt;td&gt;order_status varchar (30)&lt;/td&gt;&lt;/tr&gt;&lt;tr&gt;&lt;td&gt;&lt;br&gt;&lt;/td&gt;&lt;td&gt;&lt;br&gt;&lt;/td&gt;&lt;/tr&gt;&lt;tr&gt;&lt;td&gt;&lt;br&gt;&lt;/td&gt;&lt;td&gt;&lt;br&gt;&lt;/td&gt;&lt;/tr&gt;&lt;/tbody&gt;&lt;/table&gt;" style="verticalAlign=top;align=left;overflow=fill;html=1;whiteSpace=wrap;" parent="WIyWlLk6GJQsqaUBKTNV-1" vertex="1">
          <mxGeometry x="370.01" y="57.25" width="180" height="90" as="geometry" />
        </mxCell>
        <mxCell id="jSsbBtt8vJebGRckKTgW-13" value="&lt;div style=&quot;box-sizing: border-box; width: 100%; background: rgb(228, 228, 228); padding: 2px;&quot;&gt;product_order&lt;/div&gt;&lt;table style=&quot;width:100%;font-size:1em;&quot; cellpadding=&quot;2&quot; cellspacing=&quot;0&quot;&gt;&lt;tbody&gt;&lt;tr&gt;&lt;td&gt;PK/FK&lt;/td&gt;&lt;td&gt;product_order_id int (11)&lt;/td&gt;&lt;/tr&gt;&lt;tr&gt;&lt;td&gt;PK/FK&lt;/td&gt;&lt;td&gt;product_order_product_id int (11)&lt;br&gt;&lt;/td&gt;&lt;/tr&gt;&lt;tr&gt;&lt;td&gt;&lt;br&gt;&lt;/td&gt;&lt;td&gt;product_order_quantity int (5)&lt;br&gt;product_order_unit_cost decimal (7,2)&lt;br&gt;&lt;br&gt;&lt;/td&gt;&lt;/tr&gt;&lt;/tbody&gt;&lt;/table&gt;" style="verticalAlign=top;align=left;overflow=fill;html=1;whiteSpace=wrap;" parent="WIyWlLk6GJQsqaUBKTNV-1" vertex="1">
          <mxGeometry x="660" y="230" width="250" height="90" as="geometry" />
        </mxCell>
        <mxCell id="jSsbBtt8vJebGRckKTgW-14" value="&lt;div style=&quot;box-sizing: border-box; width: 100%; background: rgb(228, 228, 228); padding: 2px;&quot;&gt;product&lt;/div&gt;&lt;table style=&quot;width:100%;font-size:1em;&quot; cellpadding=&quot;2&quot; cellspacing=&quot;0&quot;&gt;&lt;tbody&gt;&lt;tr&gt;&lt;td&gt;PK&lt;/td&gt;&lt;td&gt;product_id int (11)&lt;/td&gt;&lt;/tr&gt;&lt;tr&gt;&lt;td&gt;FK&lt;/td&gt;&lt;td&gt;product_business_id int (11)&lt;/td&gt;&lt;/tr&gt;&lt;tr&gt;&lt;td&gt;FK&lt;/td&gt;&lt;td&gt;product_category_name varchar (30)&lt;/td&gt;&lt;/tr&gt;&lt;tr&gt;&lt;td&gt;&lt;br&gt;&lt;/td&gt;&lt;td&gt;product_name varchar (100)&lt;/td&gt;&lt;/tr&gt;&lt;tr&gt;&lt;td&gt;&lt;/td&gt;&lt;td&gt;product_price decimal (7,2)&lt;br&gt;&lt;/td&gt;&lt;/tr&gt;&lt;tr&gt;&lt;td&gt;&lt;br&gt;&lt;/td&gt;&lt;td&gt;product_description varchar (500)&lt;br&gt;product_weight decimal (4,1)&lt;/td&gt;&lt;/tr&gt;&lt;tr&gt;&lt;td&gt;&lt;br&gt;&lt;/td&gt;&lt;td&gt;product_stock int (5)&lt;/td&gt;&lt;/tr&gt;&lt;tr&gt;&lt;td&gt;&lt;br&gt;&lt;/td&gt;&lt;td&gt;&lt;br&gt;&lt;/td&gt;&lt;/tr&gt;&lt;tr&gt;&lt;td&gt;&lt;br&gt;&lt;/td&gt;&lt;td&gt;&lt;br&gt;&lt;/td&gt;&lt;/tr&gt;&lt;/tbody&gt;&lt;/table&gt;" style="verticalAlign=top;align=left;overflow=fill;html=1;whiteSpace=wrap;" parent="WIyWlLk6GJQsqaUBKTNV-1" vertex="1">
          <mxGeometry x="348.13" y="430.28" width="223.75" height="176.44" as="geometry" />
        </mxCell>
        <mxCell id="jSsbBtt8vJebGRckKTgW-15" value="" style="edgeStyle=orthogonalEdgeStyle;rounded=0;orthogonalLoop=1;jettySize=auto;html=1;exitX=0.5;exitY=1;exitDx=0;exitDy=0;entryX=0.5;entryY=0;entryDx=0;entryDy=0;startArrow=ERone;startFill=0;endArrow=ERoneToMany;endFill=0;" parent="WIyWlLk6GJQsqaUBKTNV-1" source="jSsbBtt8vJebGRckKTgW-6" target="jSsbBtt8vJebGRckKTgW-13" edge="1">
          <mxGeometry relative="1" as="geometry">
            <mxPoint x="230" y="277" as="sourcePoint" />
            <mxPoint x="330" y="277" as="targetPoint" />
          </mxGeometry>
        </mxCell>
        <mxCell id="jSsbBtt8vJebGRckKTgW-16" value="Made Up Of" style="edgeLabel;html=1;align=center;verticalAlign=middle;resizable=0;points=[];" parent="jSsbBtt8vJebGRckKTgW-15" vertex="1" connectable="0">
          <mxGeometry x="-0.2889" y="1" relative="1" as="geometry">
            <mxPoint x="42" y="-13" as="offset" />
          </mxGeometry>
        </mxCell>
        <mxCell id="jSsbBtt8vJebGRckKTgW-17" value="1..1" style="edgeLabel;html=1;align=center;verticalAlign=middle;resizable=0;points=[];" parent="jSsbBtt8vJebGRckKTgW-15" vertex="1" connectable="0">
          <mxGeometry x="-0.7556" y="1" relative="1" as="geometry">
            <mxPoint x="10" y="-13" as="offset" />
          </mxGeometry>
        </mxCell>
        <mxCell id="jSsbBtt8vJebGRckKTgW-18" value="1..*" style="edgeLabel;html=1;align=center;verticalAlign=middle;resizable=0;points=[];" parent="jSsbBtt8vJebGRckKTgW-15" vertex="1" connectable="0">
          <mxGeometry x="0.1333" y="-2" relative="1" as="geometry">
            <mxPoint x="121" y="24" as="offset" />
          </mxGeometry>
        </mxCell>
        <mxCell id="jSsbBtt8vJebGRckKTgW-19" value="" style="edgeStyle=orthogonalEdgeStyle;rounded=0;orthogonalLoop=1;jettySize=auto;html=1;exitX=0.5;exitY=1;exitDx=0;exitDy=0;entryX=0.5;entryY=0;entryDx=0;entryDy=0;endArrow=ERone;endFill=0;startArrow=ERoneToMany;startFill=0;" parent="WIyWlLk6GJQsqaUBKTNV-1" source="jSsbBtt8vJebGRckKTgW-13" target="jSsbBtt8vJebGRckKTgW-14" edge="1">
          <mxGeometry relative="1" as="geometry">
            <mxPoint x="430" y="167" as="sourcePoint" />
            <mxPoint x="430" y="257" as="targetPoint" />
          </mxGeometry>
        </mxCell>
        <mxCell id="jSsbBtt8vJebGRckKTgW-20" value="Make Up" style="edgeLabel;html=1;align=center;verticalAlign=middle;resizable=0;points=[];" parent="jSsbBtt8vJebGRckKTgW-19" vertex="1" connectable="0">
          <mxGeometry x="-0.2889" y="1" relative="1" as="geometry">
            <mxPoint x="-36" y="11" as="offset" />
          </mxGeometry>
        </mxCell>
        <mxCell id="jSsbBtt8vJebGRckKTgW-21" value="1..*" style="edgeLabel;html=1;align=center;verticalAlign=middle;resizable=0;points=[];" parent="jSsbBtt8vJebGRckKTgW-19" vertex="1" connectable="0">
          <mxGeometry x="-0.7556" y="1" relative="1" as="geometry">
            <mxPoint x="19" y="-41" as="offset" />
          </mxGeometry>
        </mxCell>
        <mxCell id="jSsbBtt8vJebGRckKTgW-22" value="1..1" style="edgeLabel;html=1;align=center;verticalAlign=middle;resizable=0;points=[];" parent="jSsbBtt8vJebGRckKTgW-19" vertex="1" connectable="0">
          <mxGeometry x="0.1333" y="-2" relative="1" as="geometry">
            <mxPoint x="-107" y="47" as="offset" />
          </mxGeometry>
        </mxCell>
        <mxCell id="jSsbBtt8vJebGRckKTgW-23" value="&lt;div style=&quot;box-sizing: border-box; width: 100%; background: rgb(228, 228, 228); padding: 2px;&quot;&gt;business&lt;/div&gt;&lt;table style=&quot;width:100%;font-size:1em;&quot; cellpadding=&quot;2&quot; cellspacing=&quot;0&quot;&gt;&lt;tbody&gt;&lt;tr&gt;&lt;td&gt;PK/FK&lt;/td&gt;&lt;td&gt;business_id int (11)&lt;/td&gt;&lt;/tr&gt;&lt;tr&gt;&lt;td&gt;&lt;br&gt;&lt;/td&gt;&lt;td&gt;business_name varchar (80)&lt;br&gt;business_description varchar (500)&lt;/td&gt;&lt;/tr&gt;&lt;tr&gt;&lt;td&gt;&lt;/td&gt;&lt;td&gt;business_email varchar (100) UNIQUE&lt;br&gt;&lt;/td&gt;&lt;/tr&gt;&lt;tr&gt;&lt;td&gt;&lt;br&gt;&lt;/td&gt;&lt;td&gt;business_address_line1 varchar (80)&lt;/td&gt;&lt;/tr&gt;&lt;tr&gt;&lt;td&gt;&lt;br&gt;&lt;/td&gt;&lt;td&gt;business_address_line2 varchar (80)&lt;/td&gt;&lt;/tr&gt;&lt;tr&gt;&lt;td&gt;&lt;br&gt;&lt;/td&gt;&lt;td&gt;business_postcode varchar (12)&lt;/td&gt;&lt;/tr&gt;&lt;tr&gt;&lt;td&gt;&lt;br&gt;&lt;/td&gt;&lt;td&gt;business_geolocation_lat decimal (8,6)&lt;/td&gt;&lt;/tr&gt;&lt;tr&gt;&lt;td&gt;&lt;br&gt;&lt;/td&gt;&lt;td&gt;business_geolocation_long decimal (9,6)&lt;br&gt;business_contact_email varchar (100)&lt;br&gt;&lt;br&gt;&lt;/td&gt;&lt;/tr&gt;&lt;/tbody&gt;&lt;/table&gt;" style="verticalAlign=top;align=left;overflow=fill;html=1;whiteSpace=wrap;" parent="WIyWlLk6GJQsqaUBKTNV-1" vertex="1">
          <mxGeometry x="-10" y="419.87" width="270" height="197.25" as="geometry" />
        </mxCell>
        <mxCell id="jSsbBtt8vJebGRckKTgW-24" value="" style="edgeStyle=orthogonalEdgeStyle;rounded=0;orthogonalLoop=1;jettySize=auto;html=1;exitX=1;exitY=0.5;exitDx=0;exitDy=0;entryX=0;entryY=0.5;entryDx=0;entryDy=0;endArrow=ERzeroToMany;endFill=0;startArrow=ERone;startFill=0;" parent="WIyWlLk6GJQsqaUBKTNV-1" source="jSsbBtt8vJebGRckKTgW-23" target="jSsbBtt8vJebGRckKTgW-14" edge="1">
          <mxGeometry relative="1" as="geometry">
            <mxPoint x="220" y="469" as="sourcePoint" />
            <mxPoint x="320" y="469" as="targetPoint" />
          </mxGeometry>
        </mxCell>
        <mxCell id="jSsbBtt8vJebGRckKTgW-25" value="Sells" style="edgeLabel;html=1;align=center;verticalAlign=middle;resizable=0;points=[];" parent="jSsbBtt8vJebGRckKTgW-24" vertex="1" connectable="0">
          <mxGeometry x="-0.2889" y="1" relative="1" as="geometry">
            <mxPoint x="9" y="-14" as="offset" />
          </mxGeometry>
        </mxCell>
        <mxCell id="jSsbBtt8vJebGRckKTgW-26" value="1..1" style="edgeLabel;html=1;align=center;verticalAlign=middle;resizable=0;points=[];" parent="jSsbBtt8vJebGRckKTgW-24" vertex="1" connectable="0">
          <mxGeometry x="-0.7556" y="1" relative="1" as="geometry">
            <mxPoint x="-1" y="-14" as="offset" />
          </mxGeometry>
        </mxCell>
        <mxCell id="jSsbBtt8vJebGRckKTgW-27" value="0..*" style="edgeLabel;html=1;align=center;verticalAlign=middle;resizable=0;points=[];" parent="jSsbBtt8vJebGRckKTgW-24" vertex="1" connectable="0">
          <mxGeometry x="0.1333" y="-2" relative="1" as="geometry">
            <mxPoint x="21" y="-17" as="offset" />
          </mxGeometry>
        </mxCell>
        <mxCell id="jSsbBtt8vJebGRckKTgW-28" value="&lt;div style=&quot;box-sizing: border-box; width: 100%; background: rgb(228, 228, 228); padding: 2px;&quot;&gt;category&lt;/div&gt;&lt;table style=&quot;width:100%;font-size:1em;&quot; cellpadding=&quot;2&quot; cellspacing=&quot;0&quot;&gt;&lt;tbody&gt;&lt;tr&gt;&lt;td&gt;PK&lt;/td&gt;&lt;td&gt;category_name varchar (30)&lt;/td&gt;&lt;/tr&gt;&lt;tr&gt;&lt;td&gt;&lt;br&gt;&lt;/td&gt;&lt;td&gt;category_description varchar (500)&lt;/td&gt;&lt;/tr&gt;&lt;tr&gt;&lt;td&gt;&lt;/td&gt;&lt;td&gt;&lt;br&gt;&lt;/td&gt;&lt;/tr&gt;&lt;/tbody&gt;&lt;/table&gt;" style="verticalAlign=top;align=left;overflow=fill;html=1;whiteSpace=wrap;" parent="WIyWlLk6GJQsqaUBKTNV-1" vertex="1">
          <mxGeometry x="710" y="487.25" width="210" height="62.5" as="geometry" />
        </mxCell>
        <mxCell id="jSsbBtt8vJebGRckKTgW-29" value="" style="edgeStyle=orthogonalEdgeStyle;rounded=0;orthogonalLoop=1;jettySize=auto;html=1;exitX=1;exitY=0.5;exitDx=0;exitDy=0;entryX=0;entryY=0.5;entryDx=0;entryDy=0;startArrow=ERzeroToMany;startFill=0;endArrow=ERone;endFill=0;" parent="WIyWlLk6GJQsqaUBKTNV-1" source="jSsbBtt8vJebGRckKTgW-14" target="jSsbBtt8vJebGRckKTgW-28" edge="1">
          <mxGeometry relative="1" as="geometry">
            <mxPoint x="430" y="209" as="sourcePoint" />
            <mxPoint x="430" y="299" as="targetPoint" />
          </mxGeometry>
        </mxCell>
        <mxCell id="jSsbBtt8vJebGRckKTgW-30" value="Represents" style="edgeLabel;html=1;align=center;verticalAlign=middle;resizable=0;points=[];" parent="jSsbBtt8vJebGRckKTgW-29" vertex="1" connectable="0">
          <mxGeometry x="-0.2889" y="1" relative="1" as="geometry">
            <mxPoint x="13" y="-14" as="offset" />
          </mxGeometry>
        </mxCell>
        <mxCell id="jSsbBtt8vJebGRckKTgW-31" value="0..*" style="edgeLabel;html=1;align=center;verticalAlign=middle;resizable=0;points=[];" parent="jSsbBtt8vJebGRckKTgW-29" vertex="1" connectable="0">
          <mxGeometry x="-0.7556" y="1" relative="1" as="geometry">
            <mxPoint y="-14" as="offset" />
          </mxGeometry>
        </mxCell>
        <mxCell id="jSsbBtt8vJebGRckKTgW-32" value="1..1" style="edgeLabel;html=1;align=center;verticalAlign=middle;resizable=0;points=[];" parent="jSsbBtt8vJebGRckKTgW-29" vertex="1" connectable="0">
          <mxGeometry x="0.1333" y="-2" relative="1" as="geometry">
            <mxPoint x="32" y="-17" as="offset" />
          </mxGeometry>
        </mxCell>
        <mxCell id="emKWdDyX30KAi3H5ABEq-0" value="&lt;span style=&quot;background-color: transparent; color: light-dark(rgb(0, 0, 0), rgb(255, 255, 255));&quot;&gt;create folder of business id that stores their images of product/logo&lt;/span&gt;&lt;div&gt;compress them, thumbnail / display / large.keep standard size/shape&lt;/div&gt;" style="text;html=1;align=center;verticalAlign=middle;resizable=0;points=[];autosize=1;fillColor=#f5f5f5;fontColor=#333333;strokeColor=#666666;" parent="WIyWlLk6GJQsqaUBKTNV-1" vertex="1">
          <mxGeometry x="430" y="10" width="390" height="40" as="geometry" />
        </mxCell>
        <mxCell id="emKWdDyX30KAi3H5ABEq-2" value="&lt;div style=&quot;box-sizing: border-box; width: 100%; background: rgb(228, 228, 228); padding: 2px;&quot;&gt;tags&lt;/div&gt;&lt;table style=&quot;width:100%;font-size:1em;&quot; cellpadding=&quot;2&quot; cellspacing=&quot;0&quot;&gt;&lt;tbody&gt;&lt;tr&gt;&lt;td&gt;PK&lt;/td&gt;&lt;td&gt;tag_name varchar (100)&lt;/td&gt;&lt;/tr&gt;&lt;tr&gt;&lt;td&gt;&lt;br&gt;&lt;/td&gt;&lt;td&gt;tag_description varchar (500)&lt;/td&gt;&lt;/tr&gt;&lt;tr&gt;&lt;td&gt;&lt;br&gt;&lt;/td&gt;&lt;td&gt;&lt;br&gt;&lt;/td&gt;&lt;/tr&gt;&lt;/tbody&gt;&lt;/table&gt;" style="verticalAlign=top;align=left;overflow=fill;html=1;whiteSpace=wrap;" parent="WIyWlLk6GJQsqaUBKTNV-1" vertex="1">
          <mxGeometry x="40" y="682" width="190" height="63" as="geometry" />
        </mxCell>
        <mxCell id="emKWdDyX30KAi3H5ABEq-4" value="" style="edgeStyle=orthogonalEdgeStyle;rounded=0;orthogonalLoop=1;jettySize=auto;html=1;entryX=0.5;entryY=1;entryDx=0;entryDy=0;startArrow=ERzeroToMany;startFill=0;endArrow=ERone;endFill=0;exitX=0.5;exitY=0;exitDx=0;exitDy=0;" parent="WIyWlLk6GJQsqaUBKTNV-1" source="E1Ps-fiMPcJ9bzj2dyzb-0" target="jSsbBtt8vJebGRckKTgW-14" edge="1">
          <mxGeometry relative="1" as="geometry">
            <mxPoint x="420" y="675.62" as="sourcePoint" />
            <mxPoint x="460" y="608.5000000000001" as="targetPoint" />
          </mxGeometry>
        </mxCell>
        <mxCell id="emKWdDyX30KAi3H5ABEq-5" value="Has" style="edgeLabel;html=1;align=center;verticalAlign=middle;resizable=0;points=[];" parent="emKWdDyX30KAi3H5ABEq-4" vertex="1" connectable="0">
          <mxGeometry x="-0.2889" y="1" relative="1" as="geometry">
            <mxPoint x="21" y="-12" as="offset" />
          </mxGeometry>
        </mxCell>
        <mxCell id="emKWdDyX30KAi3H5ABEq-6" value="0..*" style="edgeLabel;html=1;align=center;verticalAlign=middle;resizable=0;points=[];" parent="emKWdDyX30KAi3H5ABEq-4" vertex="1" connectable="0">
          <mxGeometry x="-0.7556" y="1" relative="1" as="geometry">
            <mxPoint x="21" y="1" as="offset" />
          </mxGeometry>
        </mxCell>
        <mxCell id="emKWdDyX30KAi3H5ABEq-7" value="1..1" style="edgeLabel;html=1;align=center;verticalAlign=middle;resizable=0;points=[];" parent="emKWdDyX30KAi3H5ABEq-4" vertex="1" connectable="0">
          <mxGeometry x="0.1333" y="-2" relative="1" as="geometry">
            <mxPoint x="18" y="-23" as="offset" />
          </mxGeometry>
        </mxCell>
        <mxCell id="E1Ps-fiMPcJ9bzj2dyzb-0" value="&lt;div style=&quot;box-sizing: border-box; width: 100%; background: rgb(228, 228, 228); padding: 2px;&quot;&gt;product_tags&lt;/div&gt;&lt;table style=&quot;width:100%;font-size:1em;&quot; cellpadding=&quot;2&quot; cellspacing=&quot;0&quot;&gt;&lt;tbody&gt;&lt;tr&gt;&lt;td&gt;PK/FK&lt;/td&gt;&lt;td&gt;product_tag_name varchar (100)&lt;/td&gt;&lt;/tr&gt;&lt;tr&gt;&lt;td&gt;PK/FK&lt;/td&gt;&lt;td&gt;product_tag_id int (11)&lt;/td&gt;&lt;/tr&gt;&lt;tr&gt;&lt;td&gt;&lt;br&gt;&lt;/td&gt;&lt;td&gt;&lt;br&gt;&lt;/td&gt;&lt;/tr&gt;&lt;/tbody&gt;&lt;/table&gt;" style="verticalAlign=top;align=left;overflow=fill;html=1;whiteSpace=wrap;" parent="WIyWlLk6GJQsqaUBKTNV-1" vertex="1">
          <mxGeometry x="345" y="682" width="230" height="63" as="geometry" />
        </mxCell>
        <mxCell id="E1Ps-fiMPcJ9bzj2dyzb-1" value="" style="edgeStyle=orthogonalEdgeStyle;rounded=0;orthogonalLoop=1;jettySize=auto;html=1;entryX=1;entryY=0.5;entryDx=0;entryDy=0;startArrow=ERzeroToMany;startFill=0;endArrow=ERone;endFill=0;exitX=0;exitY=0.5;exitDx=0;exitDy=0;" parent="WIyWlLk6GJQsqaUBKTNV-1" source="E1Ps-fiMPcJ9bzj2dyzb-0" target="emKWdDyX30KAi3H5ABEq-2" edge="1">
          <mxGeometry relative="1" as="geometry">
            <mxPoint x="430" y="683.62" as="sourcePoint" />
            <mxPoint x="430" y="590.62" as="targetPoint" />
          </mxGeometry>
        </mxCell>
        <mxCell id="E1Ps-fiMPcJ9bzj2dyzb-2" value="Has" style="edgeLabel;html=1;align=center;verticalAlign=middle;resizable=0;points=[];" parent="E1Ps-fiMPcJ9bzj2dyzb-1" vertex="1" connectable="0">
          <mxGeometry x="-0.2889" y="1" relative="1" as="geometry">
            <mxPoint x="-14" y="16" as="offset" />
          </mxGeometry>
        </mxCell>
        <mxCell id="E1Ps-fiMPcJ9bzj2dyzb-3" value="0..*" style="edgeLabel;html=1;align=center;verticalAlign=middle;resizable=0;points=[];" parent="E1Ps-fiMPcJ9bzj2dyzb-1" vertex="1" connectable="0">
          <mxGeometry x="-0.7556" y="1" relative="1" as="geometry">
            <mxPoint x="-1" y="16" as="offset" />
          </mxGeometry>
        </mxCell>
        <mxCell id="E1Ps-fiMPcJ9bzj2dyzb-4" value="1..1" style="edgeLabel;html=1;align=center;verticalAlign=middle;resizable=0;points=[];" parent="E1Ps-fiMPcJ9bzj2dyzb-1" vertex="1" connectable="0">
          <mxGeometry x="0.1333" y="-2" relative="1" as="geometry">
            <mxPoint x="-33" y="19" as="offset" />
          </mxGeometry>
        </mxCell>
        <mxCell id="bsmpY3y-bxE5RTYFKYd4-2" value="&lt;div style=&quot;box-sizing: border-box; width: 100%; background: rgb(228, 228, 228); padding: 2px;&quot;&gt;customer_login&lt;/div&gt;&lt;table style=&quot;width:100%;font-size:1em;&quot; cellpadding=&quot;2&quot; cellspacing=&quot;0&quot;&gt;&lt;tbody&gt;&lt;tr&gt;&lt;td&gt;PK&lt;/td&gt;&lt;td&gt;customer_login_id int (11) AUTO INCREMENT&lt;br&gt;&lt;/td&gt;&lt;/tr&gt;&lt;tr&gt;&lt;td&gt;&lt;br&gt;&lt;/td&gt;&lt;td&gt;customer_login_password varchar (100)&lt;/td&gt;&lt;/tr&gt;&lt;/tbody&gt;&lt;/table&gt;" style="verticalAlign=top;align=left;overflow=fill;html=1;whiteSpace=wrap;" parent="WIyWlLk6GJQsqaUBKTNV-1" vertex="1">
          <mxGeometry x="-380" y="66.69" width="280" height="71.12" as="geometry" />
        </mxCell>
        <mxCell id="bsmpY3y-bxE5RTYFKYd4-3" value="" style="edgeStyle=orthogonalEdgeStyle;rounded=0;orthogonalLoop=1;jettySize=auto;html=1;startArrow=ERone;startFill=0;endArrow=ERzeroToMany;endFill=0;exitX=1;exitY=0.5;exitDx=0;exitDy=0;entryX=0;entryY=0.5;entryDx=0;entryDy=0;" parent="WIyWlLk6GJQsqaUBKTNV-1" source="bsmpY3y-bxE5RTYFKYd4-2" target="jSsbBtt8vJebGRckKTgW-5" edge="1">
          <mxGeometry relative="1" as="geometry">
            <mxPoint x="-90" y="180" as="sourcePoint" />
            <mxPoint x="10" y="180" as="targetPoint" />
          </mxGeometry>
        </mxCell>
        <mxCell id="bsmpY3y-bxE5RTYFKYd4-4" value="Is For" style="edgeLabel;html=1;align=center;verticalAlign=middle;resizable=0;points=[];" parent="bsmpY3y-bxE5RTYFKYd4-3" vertex="1" connectable="0">
          <mxGeometry x="-0.2889" y="1" relative="1" as="geometry">
            <mxPoint x="8" y="-14" as="offset" />
          </mxGeometry>
        </mxCell>
        <mxCell id="bsmpY3y-bxE5RTYFKYd4-5" value="1..1" style="edgeLabel;html=1;align=center;verticalAlign=middle;resizable=0;points=[];" parent="bsmpY3y-bxE5RTYFKYd4-3" vertex="1" connectable="0">
          <mxGeometry x="-0.7556" y="1" relative="1" as="geometry">
            <mxPoint y="-14" as="offset" />
          </mxGeometry>
        </mxCell>
        <mxCell id="bsmpY3y-bxE5RTYFKYd4-6" value="1..1" style="edgeLabel;html=1;align=center;verticalAlign=middle;resizable=0;points=[];" parent="bsmpY3y-bxE5RTYFKYd4-3" vertex="1" connectable="0">
          <mxGeometry x="0.1333" y="-2" relative="1" as="geometry">
            <mxPoint x="29" y="-17" as="offset" />
          </mxGeometry>
        </mxCell>
        <mxCell id="bsmpY3y-bxE5RTYFKYd4-8" value="&lt;div style=&quot;box-sizing: border-box; width: 100%; background: rgb(228, 228, 228); padding: 2px;&quot;&gt;business_login&lt;/div&gt;&lt;table style=&quot;width:100%;font-size:1em;&quot; cellpadding=&quot;2&quot; cellspacing=&quot;0&quot;&gt;&lt;tbody&gt;&lt;tr&gt;&lt;td&gt;PK&lt;/td&gt;&lt;td&gt;business_login_id int (11) AUTO INCREMENT&lt;br&gt;&lt;/td&gt;&lt;/tr&gt;&lt;tr&gt;&lt;td&gt;&lt;br&gt;&lt;/td&gt;&lt;td&gt;business_login_password varchar (100)&lt;/td&gt;&lt;/tr&gt;&lt;/tbody&gt;&lt;/table&gt;" style="verticalAlign=top;align=left;overflow=fill;html=1;whiteSpace=wrap;" parent="WIyWlLk6GJQsqaUBKTNV-1" vertex="1">
          <mxGeometry x="-380" y="482.94" width="270" height="71.12" as="geometry" />
        </mxCell>
        <mxCell id="bsmpY3y-bxE5RTYFKYd4-9" value="" style="edgeStyle=orthogonalEdgeStyle;rounded=0;orthogonalLoop=1;jettySize=auto;html=1;startArrow=ERone;startFill=0;endArrow=ERzeroToMany;endFill=0;exitX=1;exitY=0.5;exitDx=0;exitDy=0;entryX=0;entryY=0.5;entryDx=0;entryDy=0;" parent="WIyWlLk6GJQsqaUBKTNV-1" source="bsmpY3y-bxE5RTYFKYd4-8" target="jSsbBtt8vJebGRckKTgW-23" edge="1">
          <mxGeometry relative="1" as="geometry">
            <mxPoint x="-60" y="452" as="sourcePoint" />
            <mxPoint x="30" y="452" as="targetPoint" />
          </mxGeometry>
        </mxCell>
        <mxCell id="bsmpY3y-bxE5RTYFKYd4-10" value="Is For" style="edgeLabel;html=1;align=center;verticalAlign=middle;resizable=0;points=[];" parent="bsmpY3y-bxE5RTYFKYd4-9" vertex="1" connectable="0">
          <mxGeometry x="-0.2889" y="1" relative="1" as="geometry">
            <mxPoint x="8" y="-14" as="offset" />
          </mxGeometry>
        </mxCell>
        <mxCell id="bsmpY3y-bxE5RTYFKYd4-11" value="1..1" style="edgeLabel;html=1;align=center;verticalAlign=middle;resizable=0;points=[];" parent="bsmpY3y-bxE5RTYFKYd4-9" vertex="1" connectable="0">
          <mxGeometry x="-0.7556" y="1" relative="1" as="geometry">
            <mxPoint y="-14" as="offset" />
          </mxGeometry>
        </mxCell>
        <mxCell id="bsmpY3y-bxE5RTYFKYd4-12" value="1..1" style="edgeLabel;html=1;align=center;verticalAlign=middle;resizable=0;points=[];" parent="bsmpY3y-bxE5RTYFKYd4-9" vertex="1" connectable="0">
          <mxGeometry x="0.1333" y="-2" relative="1" as="geometry">
            <mxPoint x="29" y="-17" as="offset" />
          </mxGeometry>
        </mxCell>
        <mxCell id="bsmpY3y-bxE5RTYFKYd4-14" value="" style="edgeStyle=orthogonalEdgeStyle;rounded=0;orthogonalLoop=1;jettySize=auto;html=1;exitX=0.5;exitY=1;exitDx=0;exitDy=0;entryX=0;entryY=0.5;entryDx=0;entryDy=0;startArrow=ERone;startFill=0;endArrow=ERoneToMany;endFill=0;" parent="WIyWlLk6GJQsqaUBKTNV-1" source="jSsbBtt8vJebGRckKTgW-5" target="bsmpY3y-bxE5RTYFKYd4-22" edge="1">
          <mxGeometry relative="1" as="geometry">
            <mxPoint x="190" y="220" as="sourcePoint" />
            <mxPoint x="135" y="250" as="targetPoint" />
          </mxGeometry>
        </mxCell>
        <mxCell id="bsmpY3y-bxE5RTYFKYd4-15" value="Orders To" style="edgeLabel;html=1;align=center;verticalAlign=middle;resizable=0;points=[];" parent="bsmpY3y-bxE5RTYFKYd4-14" vertex="1" connectable="0">
          <mxGeometry x="-0.2889" y="1" relative="1" as="geometry">
            <mxPoint x="24" y="8" as="offset" />
          </mxGeometry>
        </mxCell>
        <mxCell id="bsmpY3y-bxE5RTYFKYd4-16" value="1..1" style="edgeLabel;html=1;align=center;verticalAlign=middle;resizable=0;points=[];" parent="bsmpY3y-bxE5RTYFKYd4-14" vertex="1" connectable="0">
          <mxGeometry x="-0.7556" y="1" relative="1" as="geometry">
            <mxPoint x="14" y="-31" as="offset" />
          </mxGeometry>
        </mxCell>
        <mxCell id="bsmpY3y-bxE5RTYFKYd4-17" value="1..1" style="edgeLabel;html=1;align=center;verticalAlign=middle;resizable=0;points=[];" parent="bsmpY3y-bxE5RTYFKYd4-14" vertex="1" connectable="0">
          <mxGeometry x="0.1333" y="-2" relative="1" as="geometry">
            <mxPoint x="117" y="8" as="offset" />
          </mxGeometry>
        </mxCell>
        <mxCell id="bsmpY3y-bxE5RTYFKYd4-22" value="&lt;div style=&quot;box-sizing: border-box; width: 100%; background: rgb(228, 228, 228); padding: 2px;&quot;&gt;basket_item&lt;/div&gt;&lt;table style=&quot;width:100%;font-size:1em;&quot; cellpadding=&quot;2&quot; cellspacing=&quot;0&quot;&gt;&lt;tbody&gt;&lt;tr&gt;&lt;td&gt;PK/FK&lt;/td&gt;&lt;td&gt;item_basket_customer_id int (11)&lt;/td&gt;&lt;/tr&gt;&lt;tr&gt;&lt;td&gt;PK/FK&lt;/td&gt;&lt;td&gt;item_product_id int (11)&lt;br&gt;&lt;/td&gt;&lt;/tr&gt;&lt;tr&gt;&lt;td&gt;&lt;br&gt;&lt;/td&gt;&lt;td&gt;item_quantity int (5)&lt;/td&gt;&lt;/tr&gt;&lt;/tbody&gt;&lt;/table&gt;" style="verticalAlign=top;align=left;overflow=fill;html=1;whiteSpace=wrap;" parent="WIyWlLk6GJQsqaUBKTNV-1" vertex="1">
          <mxGeometry x="346.26" y="240" width="227.5" height="80" as="geometry" />
        </mxCell>
        <mxCell id="bsmpY3y-bxE5RTYFKYd4-23" value="" style="edgeStyle=orthogonalEdgeStyle;rounded=0;orthogonalLoop=1;jettySize=auto;html=1;exitX=0.5;exitY=1;exitDx=0;exitDy=0;entryX=0.5;entryY=0;entryDx=0;entryDy=0;endArrow=ERone;endFill=0;startArrow=ERoneToMany;startFill=0;" parent="WIyWlLk6GJQsqaUBKTNV-1" source="bsmpY3y-bxE5RTYFKYd4-22" target="jSsbBtt8vJebGRckKTgW-14" edge="1">
          <mxGeometry relative="1" as="geometry">
            <mxPoint x="780" y="330" as="sourcePoint" />
            <mxPoint x="470" y="440" as="targetPoint" />
          </mxGeometry>
        </mxCell>
        <mxCell id="bsmpY3y-bxE5RTYFKYd4-24" value="Make Up" style="edgeLabel;html=1;align=center;verticalAlign=middle;resizable=0;points=[];" parent="bsmpY3y-bxE5RTYFKYd4-23" vertex="1" connectable="0">
          <mxGeometry x="-0.2889" y="1" relative="1" as="geometry">
            <mxPoint x="-31" y="11" as="offset" />
          </mxGeometry>
        </mxCell>
        <mxCell id="bsmpY3y-bxE5RTYFKYd4-25" value="1..*" style="edgeLabel;html=1;align=center;verticalAlign=middle;resizable=0;points=[];" parent="bsmpY3y-bxE5RTYFKYd4-23" vertex="1" connectable="0">
          <mxGeometry x="-0.7556" y="1" relative="1" as="geometry">
            <mxPoint x="-21" y="-3" as="offset" />
          </mxGeometry>
        </mxCell>
        <mxCell id="bsmpY3y-bxE5RTYFKYd4-26" value="1..1" style="edgeLabel;html=1;align=center;verticalAlign=middle;resizable=0;points=[];" parent="bsmpY3y-bxE5RTYFKYd4-23" vertex="1" connectable="0">
          <mxGeometry x="0.1333" y="-2" relative="1" as="geometry">
            <mxPoint x="-18" y="38" as="offset" />
          </mxGeometry>
        </mxCell>
        <mxCell id="bsmpY3y-bxE5RTYFKYd4-27" value="&lt;div style=&quot;box-sizing: border-box; width: 100%; background: rgb(228, 228, 228); padding: 2px;&quot;&gt;order_status_table&lt;/div&gt;&lt;table style=&quot;width:100%;font-size:1em;&quot; cellpadding=&quot;2&quot; cellspacing=&quot;0&quot;&gt;&lt;tbody&gt;&lt;tr&gt;&lt;td&gt;PK&lt;/td&gt;&lt;td&gt;status_name varchar (30)&lt;/td&gt;&lt;/tr&gt;&lt;tr&gt;&lt;td&gt;&lt;/td&gt;&lt;td&gt;&lt;br&gt;&lt;/td&gt;&lt;/tr&gt;&lt;tr&gt;&lt;td&gt;&lt;br&gt;&lt;/td&gt;&lt;td&gt;&lt;br&gt;&lt;/td&gt;&lt;/tr&gt;&lt;tr&gt;&lt;td&gt;&lt;br&gt;&lt;/td&gt;&lt;td&gt;&lt;br&gt;&lt;/td&gt;&lt;/tr&gt;&lt;/tbody&gt;&lt;/table&gt;" style="verticalAlign=top;align=left;overflow=fill;html=1;whiteSpace=wrap;" parent="WIyWlLk6GJQsqaUBKTNV-1" vertex="1">
          <mxGeometry x="670" y="80.88" width="180" height="42.75" as="geometry" />
        </mxCell>
        <mxCell id="bsmpY3y-bxE5RTYFKYd4-29" value="" style="edgeStyle=orthogonalEdgeStyle;rounded=0;orthogonalLoop=1;jettySize=auto;html=1;entryX=1;entryY=0.5;entryDx=0;entryDy=0;startArrow=ERone;startFill=0;endArrow=ERoneToMany;endFill=0;exitX=0;exitY=0.5;exitDx=0;exitDy=0;" parent="WIyWlLk6GJQsqaUBKTNV-1" source="bsmpY3y-bxE5RTYFKYd4-27" target="jSsbBtt8vJebGRckKTgW-6" edge="1">
          <mxGeometry relative="1" as="geometry">
            <mxPoint x="620" y="50" as="sourcePoint" />
            <mxPoint x="990" y="190.81" as="targetPoint" />
          </mxGeometry>
        </mxCell>
        <mxCell id="bsmpY3y-bxE5RTYFKYd4-30" value="Status Of" style="edgeLabel;html=1;align=center;verticalAlign=middle;resizable=0;points=[];" parent="bsmpY3y-bxE5RTYFKYd4-29" vertex="1" connectable="0">
          <mxGeometry x="-0.2889" y="1" relative="1" as="geometry">
            <mxPoint x="-21" y="-13" as="offset" />
          </mxGeometry>
        </mxCell>
        <mxCell id="bsmpY3y-bxE5RTYFKYd4-31" value="1..1" style="edgeLabel;html=1;align=center;verticalAlign=middle;resizable=0;points=[];" parent="bsmpY3y-bxE5RTYFKYd4-29" vertex="1" connectable="0">
          <mxGeometry x="-0.7556" y="1" relative="1" as="geometry">
            <mxPoint x="-87" y="-13" as="offset" />
          </mxGeometry>
        </mxCell>
        <mxCell id="bsmpY3y-bxE5RTYFKYd4-32" value="1..*" style="edgeLabel;html=1;align=center;verticalAlign=middle;resizable=0;points=[];" parent="bsmpY3y-bxE5RTYFKYd4-29" vertex="1" connectable="0">
          <mxGeometry x="0.1333" y="-2" relative="1" as="geometry">
            <mxPoint x="52" y="-10" as="offset" />
          </mxGeometry>
        </mxCell>
      </root>
    </mxGraphModel>
  </diagram>
</mxfile>
